# xmcd
#
# Track frame offsets:
#	150
#	16498
#	33734
#	49183
#	67443
#	80987
#	95146
#	111171
#	128059
#	145884
#	159478
#	177956
#	196732
#	212542
#	229831
#	249870
#	264863
#	280394
#
# Disc length: 3941
#
# Revision: 1
# Processed by: cddbd v1.5.1PL0 Copyright (c) Steve Scherf et al.
# Submitted via: CDex 1.51
# Normalized: r0:TSWAP
#
DISCID=0b0f6312
DTITLE=Various Artist - Promo Only Canada Country March 2002
DYEAR=2002
DGENRE=Country
TTITLE0=Mindy McReady - Maybe, Maybe Not
TTITLE1=Trace Adkins - Help Me Understand
TTITLE2=Derailers - Bar Exam
TTITLE3=Lonestar - Not A Day Goes By
TTITLE4=Jessica Andrews - Karma
TTITLE5=Jeffrey Steele - I Can Give You Love Like That
TTITLE6=Brad Martin - Before I Knew Better
TTITLE7=Pat Green - Three Days
TTITLE8=Travis Tritt - Modern Day Bonnie and Clyde
TTITLE9=Alison Krauss and Union Station - Let Me Touch You For Awhile
TTITLE10=Carolyn Dawn Johnson - You Are
TTITLE11=Willie Nelson with Lee Ann Womack - Mendocino County Line
TTITLE12=Doc Walker - Whoever Made Those Rules
TTITLE13=Jeff Carson - Until We Fall In Love Again
TTITLE14=Jason McCoy - I've Got A Weakness
TTITLE15=Toby Keith - My List
TTITLE16=Reba McEntire - Sweet Music Man
TTITLE17=Hank Williams III - Mississippi Mud
EXTD=YEAR: 2002
EXTT0=
EXTT1=
EXTT2=
EXTT3=
EXTT4=
EXTT5=
EXTT6=
EXTT7=
EXTT8=
EXTT9=
EXTT10=
EXTT11=
EXTT12=
EXTT13=
EXTT14=
EXTT15=
EXTT16=
EXTT17=
PLAYORDER=
